<mxfile host="test.draw.io" modified="2021-11-30T07:30:46.361Z" agent="5.0 (Macintosh; Intel Mac OS X 10_15_7) AppleWebKit/537.36 (KHTML, like Gecko) Chrome/96.0.4664.55 Safari/537.36" etag="5-wl5YsiHtbxM_ZTWeSH" version="@DRAWIO-VERSION@" type="github">
  <diagram id="2rW0sY5oKlJt-1uiTSEh" name="Page-1">
    <mxGraphModel dx="1251" dy="685" grid="0" gridSize="10" guides="1" tooltips="1" connect="1" arrows="1" fold="1" page="0" pageScale="1" pageWidth="850" pageHeight="1100" math="0" shadow="0">
      <root>
        <mxCell id="0" />
        <mxCell id="1" parent="0" />
        <mxCell id="fM22f7tpNYb9ie-D1S0y-1" value="a&lt;span style=&quot;white-space: pre&quot;&gt; &lt;/span&gt;b" style="rounded=0;whiteSpace=wrap;html=1;" vertex="1" parent="1">
          <mxGeometry x="21" y="293" width="120" height="60" as="geometry" />
        </mxCell>
        <mxCell id="fM22f7tpNYb9ie-D1S0y-2" value="a&lt;span style=&quot;white-space: pre&quot;&gt; &lt;/span&gt;b" style="rounded=0;whiteSpace=wrap;html=1;" vertex="1" parent="1">
          <mxGeometry x="21" y="393" width="120" height="60" as="geometry" />
        </mxCell>
        <mxCell id="fM22f7tpNYb9ie-D1S0y-3" value="a&lt;span style=&quot;white-space: pre&quot;&gt; &lt;/span&gt;b" style="text;html=1;strokeColor=none;fillColor=none;align=center;verticalAlign=middle;whiteSpace=wrap;rounded=0;" vertex="1" parent="1">
          <mxGeometry x="51" y="487" width="60" height="30" as="geometry" />
        </mxCell>
        <mxCell id="fM22f7tpNYb9ie-D1S0y-4" value="a    b" style="rounded=0;" vertex="1" parent="1">
          <mxGeometry x="204" y="293" width="120" height="60" as="geometry" />
        </mxCell>
        <mxCell id="fM22f7tpNYb9ie-D1S0y-5" value="a    b" style="rounded=0;" vertex="1" parent="1">
          <mxGeometry x="204" y="393" width="120" height="60" as="geometry" />
        </mxCell>
        <mxCell id="fM22f7tpNYb9ie-D1S0y-6" value="a    b" style="text;strokeColor=none;fillColor=none;align=center;verticalAlign=middle;rounded=0;" vertex="1" parent="1">
          <mxGeometry x="234" y="487" width="60" height="30" as="geometry" />
        </mxCell>
      </root>
    </mxGraphModel>
  </diagram>
</mxfile>
